<svg xmlns="http://www.w3.org/2000/svg" version="1.1" xmlns:xlink="http://www.w3.org/1999/xlink" xmlns:svgjs="http://svgjs.dev/svgjs" width="2000" height="2000" viewBox="0 0 2000 2000"><g transform="matrix(1,0,0,1,-0.9999999999998863,-0.9998082228241856)"><svg viewBox="0 0 280 280" data-background-color="#ffffff" preserveAspectRatio="xMidYMid meet" height="2000" width="2000" xmlns="http://www.w3.org/2000/svg" xmlns:xlink="http://www.w3.org/1999/xlink"><g id="tight-bounds" transform="matrix(1,0,0,1,0.13999999999998636,0.14002253696452271)"><svg viewBox="0 0 279.72 279.72" height="279.72" width="279.72"><g><svg viewBox="0 0 279.72 279.72" height="279.72" width="279.72"><g><svg viewBox="0 0 279.72 279.72" height="279.72" width="279.72"><g id="textblocktransform"><svg viewBox="0 0 279.72 279.72" height="279.72" width="279.72" id="textblock"><g><svg viewBox="0 0 279.72 279.72" height="279.72" width="279.72"><g transform="matrix(1,0,0,1,73.92936372216631,86.7425350724157)"><svg viewBox="0 0 131.8612725556674 106.2349298551686" height="106.2349298551686" width="131.8612725556674"><g id="icon-0"><svg xmlns="http://www.w3.org/2000/svg" xmlns:xlink="http://www.w3.org/1999/xlink" version="1.1" x="0" y="0" viewBox="0.000186269462859337 4.662624046366331 47.99981373053714 38.67137595363367" enable-background="new 0 0 48 48" xml:space="preserve" height="106.2349298551686" width="131.8612725556674" class="icon-jxe-0" data-fill-palette-color="accent" id="jxe-0"><g fill="#637b40" data-fill-palette-color="accent"><path d="M44.368 15.474S42.072 13.129 39.395 13.41C37.176 13.641 37.739 13.976 36.325 14.084 36.594 8.567 32.919 5.085 32.752 4.93A0.985 0.985 0 1 0 31.412 6.374C31.446 6.406 34.62 9.415 34.35 14.094 32.746 13.999 33.429 13.65 31.136 13.41 28.458 13.129 26.162 15.474 26.162 15.474 20.744 21.88 28.206 30.274 30.558 31.897 32.637 33.335 34.795 32.231 35.265 31.957 35.737 32.231 37.893 33.335 39.973 31.897 42.324 30.273 49.785 21.88 44.368 15.474" fill="#637b40" data-fill-palette-color="accent"></path><path d="M37.708 9.721S37.361 4.345 46.3 5.778C46.3 5.778 44.166 12.708 37.708 9.721" fill="#637b40" data-fill-palette-color="accent"></path><circle cx="17.166" cy="18.841" r="3.6" fill="#637b40" data-fill-palette-color="accent"></circle><g fill="#637b40" data-fill-palette-color="accent"><circle cx="7.923" cy="26.334" r="3.6" fill="#637b40" data-fill-palette-color="accent"></circle><circle cx="18.2" cy="29.889" r="3.6" fill="#637b40" data-fill-palette-color="accent"></circle><path d="M44.544 28.359C43.17 30.391 41.579 31.984 40.532 32.707A4.93 4.93 0 0 1 37.68 33.604 5.9 5.9 0 0 1 35.265 33.062 5.9 5.9 0 0 1 32.849 33.604 4.94 4.94 0 0 1 29.996 32.706C28.225 31.483 24.895 27.782 23.697 23.645 19.517 23.694 15.613 24.195 12.247 25.033 12.454 25.716 12.522 26.451 12.378 27.2A4.546 4.546 0 0 1 7.057 30.789 4.5 4.5 0 0 1 4.161 28.874C4.082 28.757 4.029 28.628 3.962 28.506 1.899 29.967 0.714 31.668 0.714 33.486 0.714 38.925 11.299 43.334 24.357 43.334S48 38.926 48 33.486C48 31.607 46.736 29.853 44.544 28.359M22.655 30.754A4.547 4.547 0 0 1 17.334 34.344 4.544 4.544 0 0 1 13.743 29.025 4.54 4.54 0 0 1 21.961 27.349 4.5 4.5 0 0 1 22.655 30.754" fill="#637b40" data-fill-palette-color="accent"></path></g><path d="M10.515 14.529C10.622 14.632 14.892 12.83 14.21 10.16 13.572 7.658 13.781 5.184 13.781 5.184 4.672 10.087 10.515 14.529 10.515 14.529" fill="#637b40" data-fill-palette-color="accent"></path><g fill="#637b40" data-fill-palette-color="accent"><path d="M9.762 19.412A0.98 0.98 0 0 1 8.991 19.04C5.484 14.64 1.593 16.504 1.428 16.585A0.99 0.99 0 0 1 0.107 16.148 0.983 0.983 0 0 1 0.535 14.828C0.589 14.801 5.998 12.121 10.532 17.812A0.985 0.985 0 0 1 9.762 19.412" fill="#637b40" data-fill-palette-color="accent"></path></g></g></svg></g></svg></g><g id="text-0"><path d="M4.973 97.911l15.207 5.144-1.226 3.47-13.616-4.604c-0.575-0.194-0.974-0.523-1.198-0.986-0.226-0.456-0.241-0.972-0.047-1.547v0c0.107-0.316 0.255-0.618 0.444-0.906 0.195-0.286 0.341-0.476 0.436-0.571zM22.946 92.597l-3.996 11.816-2.965-1.003 4.313-12.754c0.175-0.039 0.401-0.061 0.677-0.067 0.268-0.001 0.544 0.047 0.828 0.143v0c0.461 0.156 0.805 0.399 1.031 0.729 0.22 0.328 0.257 0.706 0.112 1.136zM11.552 87.075l-4.502 13.313-2.957-1 4.823-14.26c0.144-0.05 0.359-0.072 0.646-0.067 0.283-0.003 0.569 0.045 0.859 0.143v0c0.455 0.154 0.795 0.396 1.022 0.725 0.218 0.334 0.254 0.716 0.109 1.146zM28.23 109.663l-13.957-4.721 1.192-3.524 15.246 5.156c-0.015 0.15-0.04 0.388-0.073 0.714-0.027 0.329-0.094 0.651-0.2 0.967v0c-0.211 0.625-0.502 1.058-0.873 1.3-0.372 0.247-0.817 0.283-1.335 0.108z" fill="#ff851b" data-fill-palette-color="primary"></path><path d="M29.515 69.956v0l6.009 3.914-1.981 3.042-5.775-3.761c-0.587-0.382-0.979-0.793-1.178-1.233-0.203-0.434-0.303-1.013-0.302-1.737v0c-0.001-0.94 0.211-2.083 0.635-3.43 0.43-1.344 1.098-2.711 2.004-4.102v0c1.321-2.028 2.487-2.713 3.499-2.054v0c0.251 0.164 0.461 0.356 0.627 0.576 0.161 0.217 0.28 0.437 0.357 0.662v0c-0.223 0.221-0.491 0.516-0.803 0.885-0.316 0.375-0.605 0.764-0.868 1.166v0c-0.761 1.168-1.308 2.271-1.643 3.311-0.338 1.045-0.532 1.965-0.581 2.761zM40.641 81.537l-8.85-5.766 2.443-2.742 9.495 6.186c-0.033 0.161-0.101 0.388-0.203 0.679-0.1 0.301-0.249 0.602-0.446 0.904v0c-0.346 0.531-0.719 0.865-1.118 1.002-0.394 0.141-0.835 0.053-1.321-0.263z" fill="#ff851b" data-fill-palette-color="primary"></path><path d="M51.982 56.946v0l-2.825-3.014 2.649-2.483 2.702 2.883c1.322 1.411 2.648 2.074 3.976 1.99 1.328-0.084 2.654-0.747 3.978-1.986v0c0.881-0.825 1.541-1.622 1.981-2.392 0.445-0.764 0.751-1.412 0.919-1.944v0l-5.615-5.992 2.642-2.476 5.52 5.89c0.433 0.462 0.721 0.887 0.864 1.273 0.138 0.391 0.097 0.937-0.124 1.638v0c-0.213 0.738-0.646 1.666-1.3 2.781-0.659 1.111-1.618 2.257-2.879 3.438v0c-1.455 1.363-2.896 2.312-4.324 2.846-1.428 0.524-2.824 0.59-4.188 0.197-1.369-0.398-2.695-1.281-3.976-2.649zM57.123 35.912l6.88 7.342-2.642 2.476-7.811-8.335c0.066-0.144 0.188-0.355 0.368-0.632 0.183-0.272 0.394-0.52 0.632-0.743v0c0.487-0.456 0.933-0.701 1.34-0.735 0.407-0.025 0.817 0.185 1.233 0.627zM46.54 45.829l6.88 7.343-2.649 2.482-7.811-8.334c0.071-0.149 0.193-0.359 0.368-0.633 0.183-0.272 0.406-0.532 0.669-0.777v0c0.462-0.433 0.897-0.667 1.303-0.701 0.411-0.029 0.825 0.178 1.24 0.62z" fill="#ff851b" data-fill-palette-color="primary"></path><path d="M87.53 20.676l-4.323 10.996-2.825-0.524 4.599-13.648c0.652-0.306 1.236-0.412 1.75-0.317 0.505 0.092 0.877 0.369 1.115 0.832v0c0.193 0.373 0.25 0.768 0.171 1.183-0.072 0.412-0.235 0.905-0.487 1.478zM93.607 35.909l-13.035-4.195 1.571-2.498 14.972 3.916c0.249 0.614 0.31 1.176 0.182 1.684-0.128 0.509-0.447 0.894-0.956 1.157v0c-0.403 0.208-0.828 0.292-1.277 0.253-0.448-0.039-0.934-0.145-1.457-0.317zM82.066 41.443l-4.923-9.548 3.475-1.184 5.281 10.241c-0.109 0.124-0.28 0.287-0.513 0.49-0.236 0.212-0.514 0.4-0.834 0.565v0c-0.563 0.29-1.052 0.396-1.468 0.318-0.412-0.072-0.752-0.366-1.018-0.882zM73.077 16.087l8.352 16.198-3.474 1.184-8.71-16.892c0.109-0.124 0.286-0.29 0.531-0.498 0.251-0.212 0.536-0.4 0.856-0.566v0c0.569-0.293 1.051-0.399 1.445-0.317 0.404 0.084 0.737 0.382 1 0.891z" fill="#ff851b" data-fill-palette-color="primary"></path><path d="M108.934 25.958l-1.541-6.295 3.517-0.861 1.489 6.082c0.287 1.172 0.83 1.918 1.629 2.237 0.793 0.321 1.775 0.338 2.947 0.051v0c0.499-0.122 1.034-0.346 1.607-0.671 0.577-0.334 1.042-0.667 1.393-1v0c0.218 0.132 0.434 0.313 0.647 0.541 0.214 0.229 0.364 0.519 0.449 0.869v0c0.159 0.648-0.094 1.269-0.758 1.864-0.663 0.602-1.671 1.068-3.025 1.399v0c-2.053 0.503-3.83 0.453-5.329-0.147-1.498-0.594-2.506-1.951-3.025-4.069zM115.9 11.886l-8.025 1.964-0.711-2.905 8.948-2.19c0.113 0.096 0.247 0.266 0.403 0.509 0.156 0.243 0.269 0.511 0.34 0.802v0c0.114 0.466 0.084 0.862-0.091 1.186-0.168 0.323-0.456 0.534-0.864 0.634zM107.642 5.453l3.591 14.67-3.517 0.861-3.902-15.943c0.128-0.093 0.339-0.213 0.632-0.361 0.285-0.152 0.606-0.272 0.963-0.359v0c0.615-0.151 1.109-0.138 1.482 0.039 0.365 0.172 0.615 0.536 0.751 1.093z" fill="#ff851b" data-fill-palette-color="primary"></path><path d="M159.962 14.834v0c-0.11 3.139-0.775 5.754-1.996 7.847-1.221 2.092-2.84 3.647-4.858 4.664-2.017 1.017-4.279 1.482-6.784 1.394v0c-2.479-0.087-4.696-0.708-6.651-1.864-1.961-1.156-3.478-2.821-4.549-4.993-1.072-2.173-1.552-4.828-1.443-7.967v0c0.11-3.145 0.792-5.761 2.047-7.846 1.248-2.091 2.88-3.646 4.897-4.662 2.017-1.017 4.252-1.483 6.704-1.397v0c2.472 0.087 4.679 0.708 6.621 1.863 1.941 1.156 3.458 2.82 4.549 4.993 1.085 2.166 1.573 4.822 1.463 7.968zM156.203 14.703v0c0.126-3.599-0.63-6.401-2.268-8.407-1.638-2.012-3.876-3.068-6.715-3.167v0c-2.812-0.098-5.106 0.799-6.88 2.692-1.774 1.886-2.724 4.629-2.85 8.227v0c-0.126 3.592 0.624 6.394 2.248 8.406 1.618 2.005 3.85 3.057 6.695 3.156v0c2.866 0.1 5.179-0.793 6.94-2.679 1.761-1.893 2.704-4.636 2.83-8.228z" fill="#ff851b" data-fill-palette-color="primary"></path><path d="M180.487 34.376v0c-1.649-0.576-3.064-1.43-4.243-2.562-1.173-1.13-1.933-2.575-2.28-4.335-0.348-1.753-0.104-3.829 0.734-6.227v0c0.756-2.166 1.81-3.828 3.161-4.988 1.354-1.166 2.9-1.862 4.638-2.089 1.743-0.218 3.571 0.007 5.485 0.676v0c1.309 0.457 2.458 1.042 3.446 1.753 0.987 0.712 1.765 1.439 2.332 2.181v0c0.329 0.433 0.567 0.876 0.712 1.329 0.152 0.456 0.139 0.938-0.04 1.449v0l-4.619 13.23-3.428-1.197 4.603-13.183c-0.375-0.484-0.885-0.976-1.529-1.477-0.64-0.492-1.461-0.913-2.462-1.262v0c-1.914-0.668-3.661-0.621-5.241 0.141-1.58 0.762-2.773 2.298-3.58 4.609v0c-0.897 2.569-0.939 4.602-0.127 6.1 0.806 1.496 2.077 2.547 3.815 3.154v0c1.259 0.44 2.347 0.579 3.265 0.42 0.924-0.158 1.701-0.412 2.332-0.764v0l-0.891 3.1c-0.586 0.304-1.409 0.486-2.469 0.547-1.062 0.067-2.266-0.134-3.614-0.605zM185.07 37.364v0l1.569-4.495 3.428 1.197-1.645 4.712c-0.657 1.882-1.594 3.25-2.81 4.104-1.212 0.862-2.612 1.302-4.201 1.32-1.597 0.022-3.28-0.276-5.049-0.894v0c-1.423-0.497-2.595-1.083-3.518-1.758-0.916-0.673-1.525-1.175-1.826-1.506v0c-0.687-0.784-0.901-1.547-0.641-2.29v0c0.138-0.397 0.349-0.697 0.633-0.902 0.277-0.207 0.583-0.333 0.916-0.38v0c0.444 0.671 1.147 1.389 2.108 2.156 0.968 0.769 2.078 1.372 3.331 1.809v0c1.914 0.668 3.522 0.767 4.823 0.296 1.304-0.477 2.264-1.6 2.882-3.369z" fill="#ff851b" data-fill-palette-color="primary"></path><path d="M213.665 32.979v0l-3.986 5.962-3.018-2.018 3.83-5.729c0.389-0.582 0.805-0.97 1.247-1.164 0.437-0.197 1.017-0.291 1.739-0.281v0c0.94 0.01 2.08 0.236 3.423 0.676 1.338 0.446 2.698 1.13 4.078 2.053v0c2.012 1.345 2.683 2.52 2.013 3.523v0c-0.167 0.249-0.361 0.456-0.584 0.62-0.218 0.159-0.441 0.275-0.666 0.349v0c-0.218-0.226-0.51-0.497-0.876-0.814-0.371-0.32-0.757-0.614-1.155-0.881v0c-1.159-0.775-2.256-1.335-3.291-1.682-1.041-0.351-1.959-0.555-2.754-0.614zM201.952 43.966l5.87-8.781 2.713 2.475-6.298 9.422c-0.161-0.035-0.386-0.106-0.677-0.212-0.299-0.104-0.599-0.256-0.898-0.456v0c-0.527-0.352-0.856-0.729-0.989-1.13-0.136-0.396-0.043-0.835 0.279-1.318z" fill="#ff851b" data-fill-palette-color="primary"></path><path d="M225.377 66.72v0c-1.923-2.091-3.003-4.088-3.239-5.99-0.227-1.902 0.437-3.568 1.993-4.999v0c1.448-1.332 2.999-1.866 4.654-1.603 1.66 0.258 3.356 1.172 5.089 2.74v0l4.824 4.315 0.935-0.86c1.114-1.025 1.62-2.105 1.516-3.242-0.103-1.137-0.676-2.272-1.719-3.407v0c-0.84-0.913-1.776-1.665-2.808-2.255-1.037-0.586-2.018-1.047-2.944-1.383v0c-0.01-0.326 0.025-0.657 0.106-0.994 0.076-0.341 0.226-0.616 0.452-0.824v0c0.574-0.528 1.316-0.613 2.226-0.253v0c0.86 0.314 1.737 0.79 2.63 1.427 0.894 0.637 1.751 1.402 2.573 2.295v0c1.778 1.934 2.757 3.865 2.936 5.793 0.174 1.933-0.674 3.759-2.544 5.479v0l-7.907 7.271c-0.491 0.451-0.95 0.701-1.377 0.75-0.431 0.043-0.934-0.02-1.507-0.191v0c-0.782-0.269-1.704-0.734-2.766-1.397-1.058-0.667-2.099-1.558-3.123-2.672zM227.578 64.696v0c0.858 0.933 1.662 1.62 2.413 2.061 0.756 0.438 1.344 0.708 1.764 0.811v0l4.837-4.449-4.232-3.745c-1.159-1.073-2.204-1.692-3.136-1.858-0.932-0.166-1.798 0.118-2.598 0.854v0c-0.825 0.758-1.17 1.678-1.036 2.759 0.139 1.087 0.801 2.275 1.988 3.567z" fill="#ff851b" data-fill-palette-color="primary"></path><path d="M259.044 93.473v0l-4.744 2.18-1.516-3.3 4.499-2.067c1.345-0.618 2.153-1.463 2.424-2.534 0.271-1.071 0.11-2.252-0.483-3.542v0c-0.393-0.854-0.908-1.616-1.545-2.285-0.64-0.675-1.264-1.202-1.872-1.583v0l-7.053 3.241-1.516-3.3 6.88-3.161c0.551-0.253 1.075-0.351 1.572-0.293 0.488 0.055 1.042 0.288 1.664 0.7v0c0.809 0.531 1.648 1.287 2.517 2.267 0.863 0.983 1.559 2.05 2.087 3.201v0c0.646 1.406 1.002 2.739 1.068 4.001 0.069 1.267-0.15 2.333-0.656 3.196v0c-0.086 0.245-0.17 0.452-0.253 0.623-0.089 0.173-0.218 0.364-0.386 0.574v0c-0.244 0.347-0.596 0.707-1.056 1.079-0.457 0.379-1.001 0.713-1.631 1.003zM264.508 105.58v0l-4.662 2.143-1.512-3.29 4.499-2.068c1.345-0.618 2.156-1.457 2.432-2.515 0.277-1.059 0.118-2.234-0.474-3.525v0c-0.443-0.963-1.069-1.799-1.878-2.506-0.806-0.716-1.746-1.26-2.82-1.632v0l1.785-2.416c1.044 0.386 2.092 1.039 3.145 1.956 1.05 0.912 1.916 2.11 2.598 3.595v0c0.682 1.484 1.039 2.876 1.071 4.175 0.032 1.299-0.292 2.471-0.971 3.517-0.688 1.043-1.759 1.898-3.213 2.566zM240.076 83.574l9.352-4.297 1.516 3.299-10.552 4.849c-0.119-0.114-0.274-0.292-0.466-0.535-0.201-0.245-0.376-0.532-0.527-0.858v0c-0.264-0.576-0.348-1.069-0.251-1.481 0.091-0.409 0.4-0.734 0.928-0.977zM245.622 95.644l9.352-4.297 1.516 3.299-10.552 4.849c-0.119-0.114-0.277-0.299-0.474-0.553-0.206-0.257-0.379-0.538-0.518-0.84v0c-0.276-0.6-0.362-1.099-0.26-1.499 0.097-0.397 0.408-0.716 0.936-0.959zM251.172 107.723l9.352-4.297 1.512 3.29-10.552 4.849c-0.116-0.108-0.274-0.292-0.474-0.553-0.206-0.257-0.378-0.535-0.514-0.831v0c-0.278-0.606-0.366-1.109-0.264-1.508 0.099-0.391 0.413-0.707 0.94-0.95z" fill="#ff851b" data-fill-palette-color="primary"></path><path d="M2.609 143.221c0-6.265 5.079-11.344 11.345-11.344 6.265 0 11.344 5.079 11.344 11.344 0 6.265-5.079 11.344-11.344 11.345-6.265 0-11.344-5.079-11.345-11.345z" fill="#ff851b" data-fill-palette-color="primary"></path><path d="M254.422 143.221c0-6.265 5.079-11.344 11.344-11.344 6.265 0 11.344 5.079 11.345 11.344 0 6.265-5.079 11.344-11.345 11.345-6.265 0-11.344-5.079-11.344-11.345z" fill="#ff851b" data-fill-palette-color="primary"></path></g><g id="text-1"><path d="M27.207 187.084l-2.294-7.289 2.49-0.784 2.559 8.129c-0.078 0.108-0.213 0.235-0.405 0.379-0.199 0.146-0.438 0.264-0.718 0.351v0c-0.407 0.128-0.751 0.124-1.031-0.011-0.28-0.135-0.481-0.394-0.601-0.775zM29.985 178.785v0l-4.484 1.412-0.953-3.025 4.637-1.459c1.507-0.475 2.815-0.585 3.922-0.333 1.107 0.253 2.047 0.827 2.819 1.724 0.778 0.895 1.392 2.057 1.842 3.488v0c0.459 1.457 0.625 2.663 0.5 3.618-0.119 0.953-0.459 1.518-1.019 1.695v0c-0.286 0.09-0.562 0.114-0.827 0.071-0.267-0.049-0.534-0.143-0.802-0.282v0c0.11-0.538 0.139-1.18 0.086-1.925-0.051-0.739-0.177-1.43-0.379-2.072v0c-0.491-1.558-1.15-2.543-1.979-2.954-0.837-0.415-1.958-0.401-3.363 0.042zM11.086 181.41l15.151-4.769 0.964 3.062-16.267 5.121c-0.091-0.111-0.208-0.284-0.352-0.518-0.144-0.234-0.265-0.507-0.362-0.819v0c-0.168-0.534-0.188-0.975-0.06-1.324 0.128-0.348 0.437-0.599 0.926-0.753z" fill="#ff851b" data-fill-palette-color="secondary"></path><path d="M31.728 196.5v0l-5.733 2.758-1.392-2.894 5.508-2.649c0.559-0.269 1.05-0.379 1.472-0.331 0.429 0.045 0.915 0.233 1.459 0.564v0c0.712 0.434 1.48 1.123 2.304 2.066 0.83 0.94 1.564 2.074 2.202 3.402v0c0.928 1.929 0.908 3.126-0.059 3.592v0c-0.24 0.116-0.483 0.188-0.728 0.217-0.239 0.026-0.46 0.014-0.662-0.037v0c-0.068-0.263-0.17-0.599-0.306-1.007-0.14-0.414-0.302-0.813-0.488-1.198v0c-0.535-1.112-1.12-2.036-1.756-2.773-0.633-0.731-1.24-1.301-1.821-1.71zM17.834 199.621l8.437-4.059 0.959 3.102-9.059 4.357c-0.106-0.097-0.247-0.251-0.422-0.463-0.176-0.211-0.334-0.464-0.476-0.758v0c-0.243-0.505-0.326-0.938-0.249-1.302 0.077-0.363 0.347-0.655 0.81-0.877z" fill="#ff851b" data-fill-palette-color="secondary"></path><path d="M41.843 223.744l-9.301-9.983 1.981-1.583 8.319 8.999c1.146-0.933 1.847-2.047 2.104-3.343 0.255-1.286-0.08-2.59-1.006-3.911v0c-0.953-1.36-2.229-2.143-3.831-2.348-1.592-0.204-3.3 0.333-5.124 1.61v0l-0.729 0.511c-1.646 1.381-2.575 2.891-2.787 4.529-0.212 1.638 0.288 3.323 1.501 5.055v0c0.647 0.923 1.385 1.652 2.214 2.185 0.832 0.525 1.577 0.886 2.237 1.084v0c0.015 0.347-0.031 0.665-0.139 0.952-0.114 0.291-0.301 0.529-0.564 0.712v0c-0.415 0.291-0.97 0.329-1.665 0.116-0.693-0.223-1.421-0.645-2.182-1.268-0.766-0.628-1.487-1.425-2.164-2.392v0c-1.182-1.688-1.903-3.368-2.164-5.042-0.251-1.672-0.001-3.268 0.75-4.787 0.747-1.525 2-2.903 3.759-4.135v0c1.251-0.876 2.491-1.476 3.721-1.801 1.234-0.319 2.415-0.393 3.544-0.223 1.138 0.172 2.203 0.582 3.195 1.231 0.997 0.645 1.863 1.492 2.597 2.54v0c0.941 1.344 1.483 2.727 1.625 4.15 0.147 1.419-0.087 2.776-0.703 4.07-0.612 1.3-1.579 2.413-2.901 3.339v0c-0.481 0.337-0.903 0.466-1.267 0.387-0.361-0.073-0.7-0.291-1.02-0.654z" fill="#ff851b" data-fill-palette-color="secondary"></path><path d="M53.859 242.322v0c-1.214 1.209-2.609 1.708-4.183 1.498-1.57-0.216-3.197-1.169-4.881-2.861v0c-1.435-1.441-2.384-2.839-2.848-4.193-0.459-1.359-0.424-2.302 0.105-2.829v0c0.227-0.226 0.512-0.388 0.857-0.486 0.34-0.094 0.698-0.083 1.075 0.03v0c0.154 0.873 0.418 1.804 0.793 2.796 0.375 0.982 0.998 1.909 1.868 2.783v0c1.971 1.98 3.621 2.309 4.949 0.987v0c0.553-0.55 0.837-1.168 0.853-1.851 0.025-0.684-0.209-1.424-0.703-2.222v0l-1.733-2.989c-0.864-1.445-1.262-2.728-1.194-3.85 0.068-1.131 0.549-2.142 1.442-3.031v0c1.007-1.002 2.288-1.464 3.843-1.385 1.556 0.079 3.167 0.955 4.833 2.627v0c0.889 0.893 1.571 1.762 2.045 2.607 0.484 0.845 0.763 1.598 0.837 2.258 0.079 0.665-0.054 1.169-0.4 1.513v0c-0.246 0.245-0.524 0.4-0.835 0.465-0.316 0.061-0.627 0.036-0.934-0.073v0c-0.07-0.382-0.189-0.837-0.357-1.365-0.173-0.533-0.434-1.097-0.782-1.693-0.352-0.6-0.811-1.183-1.375-1.749v0c-0.833-0.836-1.666-1.352-2.501-1.548-0.829-0.19-1.54 0.008-2.13 0.597v0c-0.416 0.414-0.636 0.925-0.661 1.533-0.02 0.604 0.216 1.304 0.71 2.102v0l1.466 2.451c0.987 1.596 1.472 3.042 1.454 4.338-0.008 1.297-0.545 2.477-1.613 3.54z" fill="#ff851b" data-fill-palette-color="secondary"></path><path d="M77.261 250.945l-2.195 3.078-2.622-1.869 2.148-3.014c0.933-1.309 1.259-2.542 0.979-3.699-0.279-1.149-0.996-2.135-2.153-2.96v0c-0.852-0.608-1.761-1.01-2.727-1.206-0.965-0.197-1.862-0.242-2.69-0.137v0l1.032-2.483c0.784 0.002 1.744 0.121 2.878 0.357 1.138 0.23 2.275 0.749 3.41 1.558v0c1.808 1.289 2.943 2.839 3.404 4.65 0.456 1.807-0.032 3.715-1.464 5.725zM58.083 250.208l5.434-7.623 2.615 1.864-6.114 8.576c-0.14-0.034-0.337-0.101-0.593-0.202-0.256-0.101-0.517-0.246-0.783-0.435v0c-0.456-0.325-0.738-0.665-0.845-1.02-0.107-0.355-0.012-0.741 0.286-1.16zM68.525 257.652l5.411-7.591 2.599 1.902-6.067 8.511c-0.14-0.034-0.345-0.107-0.618-0.219-0.267-0.108-0.52-0.248-0.758-0.418v0c-0.483-0.344-0.773-0.69-0.87-1.037-0.096-0.347 0.004-0.73 0.303-1.148zM74.423 232.818l-9.197 12.901-2.614-1.864 9.87-13.846c0.14 0.034 0.343 0.105 0.609 0.214 0.267 0.108 0.53 0.255 0.791 0.441v0c0.462 0.329 0.741 0.667 0.837 1.014 0.096 0.347-0.002 0.727-0.296 1.14z" fill="#ff851b" data-fill-palette-color="secondary"></path><path d="M104.426 259.287l-7.155-2.682 0.916-2.445 7.98 2.992c0.037 0.128 0.054 0.312 0.049 0.552-0.007 0.247-0.062 0.507-0.165 0.782v0c-0.15 0.4-0.364 0.668-0.644 0.806-0.279 0.137-0.606 0.136-0.981-0.005zM99.6 251.987v0l-1.65 4.402-2.969-1.113 1.706-4.552c0.555-1.48 1.273-2.578 2.154-3.294 0.881-0.717 1.912-1.103 3.094-1.158 1.184-0.062 2.478 0.171 3.883 0.697v0c1.43 0.536 2.482 1.148 3.158 1.836 0.677 0.681 0.913 1.297 0.707 1.846v0c-0.105 0.281-0.256 0.513-0.453 0.695-0.203 0.18-0.442 0.333-0.716 0.458v0c-0.356-0.418-0.844-0.836-1.464-1.254-0.613-0.415-1.236-0.741-1.866-0.977v0c-1.53-0.574-2.711-0.66-3.545-0.261-0.842 0.404-1.522 1.295-2.039 2.675zM90.026 268.491l5.576-14.873 3.007 1.127-5.987 15.969c-0.144 0.003-0.352-0.011-0.625-0.042-0.273-0.031-0.563-0.104-0.869-0.219v0c-0.524-0.197-0.884-0.453-1.08-0.768-0.195-0.315-0.203-0.713-0.022-1.194z" fill="#ff851b" data-fill-palette-color="secondary"></path><path d="M114.627 261.524v0l-1.357 6.215-3.137-0.685 1.304-5.971c0.132-0.606 0.348-1.06 0.646-1.363 0.3-0.31 0.747-0.577 1.343-0.803v0c0.781-0.294 1.796-0.474 3.046-0.542 1.252-0.075 2.597 0.045 4.038 0.36v0c2.091 0.457 3.022 1.21 2.793 2.258v0c-0.057 0.261-0.149 0.496-0.278 0.707-0.127 0.204-0.272 0.371-0.436 0.499v0c-0.249-0.109-0.577-0.235-0.982-0.379-0.412-0.145-0.827-0.262-1.244-0.353v0c-1.205-0.263-2.294-0.371-3.267-0.325-0.966 0.048-1.789 0.176-2.469 0.382zM108.53 274.393l1.998-9.147 3.034 1.155-2.145 9.82c-0.142 0.024-0.35 0.04-0.625 0.048-0.275 0.008-0.572-0.023-0.891-0.092v0c-0.547-0.12-0.94-0.321-1.178-0.606-0.238-0.284-0.303-0.677-0.193-1.178z" fill="#ff851b" data-fill-palette-color="secondary"></path><path d="M127.533 271.914v0l0.208-3.655 3.206 0.182-0.199 3.485c-0.098 1.718 0.288 2.975 1.158 3.773 0.869 0.804 2.106 1.252 3.71 1.344v0c1.072 0.061 1.987 0 2.746-0.184 0.765-0.183 1.368-0.386 1.808-0.608v0l0.414-7.26 3.215 0.183-0.407 7.14c-0.032 0.566-0.131 1.011-0.296 1.336-0.172 0.324-0.547 0.633-1.125 0.927v0c-0.606 0.313-1.467 0.598-2.584 0.855-1.117 0.257-2.437 0.342-3.962 0.255v0c-1.771-0.101-3.264-0.447-4.479-1.037-1.215-0.597-2.111-1.453-2.689-2.568-0.577-1.122-0.819-2.511-0.724-4.169zM144.189 262.343l-0.509 8.918-3.215-0.183 0.576-10.116c0.136-0.046 0.346-0.094 0.63-0.145 0.29-0.05 0.582-0.067 0.874-0.05v0c0.586 0.033 1.012 0.171 1.279 0.414 0.273 0.243 0.395 0.63 0.365 1.162zM131.336 261.611l-0.508 8.917-3.206-0.182 0.577-10.116c0.136-0.046 0.346-0.094 0.629-0.145 0.283-0.051 0.585-0.067 0.905-0.048v0c0.566 0.032 0.982 0.17 1.249 0.411 0.267 0.242 0.385 0.63 0.354 1.163z" fill="#ff851b" data-fill-palette-color="secondary"></path><path d="M150.434 254.49v0c-0.051-0.565 0.109-1.058 0.48-1.479 0.364-0.421 0.838-0.658 1.423-0.71v0c0.618-0.055 1.13 0.093 1.536 0.445 0.406 0.352 0.635 0.81 0.686 1.375v0c0.05 0.558-0.094 1.046-0.432 1.464-0.337 0.425-0.814 0.665-1.431 0.721v0c-0.584 0.052-1.093-0.1-1.527-0.456-0.44-0.349-0.684-0.802-0.735-1.36zM152.993 277.549l-0.836-9.324 3.198-0.287 0.94 10.49c-0.128 0.065-0.322 0.143-0.582 0.233-0.26 0.09-0.552 0.15-0.877 0.179v0c-0.558 0.05-0.993-0.025-1.306-0.224-0.312-0.2-0.492-0.555-0.537-1.067zM154.759 261.283l0.735 8.209-3.198 0.287-0.842-9.405c0.128-0.065 0.329-0.143 0.601-0.235 0.273-0.091 0.569-0.151 0.888-0.18v0c0.565-0.051 0.996 0.025 1.295 0.226 0.299 0.201 0.473 0.567 0.521 1.098z" fill="#ff851b" data-fill-palette-color="secondary"></path><path d="M164.908 272.082l-1.192-5.627 3.141-0.665 1.149 5.421c0.223 1.05 0.684 1.73 1.382 2.038 0.691 0.303 1.562 0.344 2.613 0.121v0c0.444-0.094 0.926-0.278 1.447-0.552 0.515-0.273 0.933-0.552 1.254-0.839v0c0.196 0.122 0.385 0.287 0.565 0.494 0.18 0.207 0.304 0.467 0.37 0.781v0c0.123 0.581-0.119 1.126-0.727 1.636-0.601 0.509-1.505 0.892-2.712 1.147v0c-1.84 0.39-3.416 0.301-4.729-0.265-1.308-0.575-2.162-1.805-2.561-3.69zM171.465 259.793l-7.163 1.518-0.549-2.593 7.984-1.693c0.107 0.086 0.224 0.239 0.353 0.457 0.128 0.218 0.22 0.458 0.275 0.719v0c0.09 0.424 0.055 0.776-0.104 1.055-0.166 0.28-0.431 0.459-0.796 0.537zM164.331 253.871l2.775 13.093-3.141 0.666-3.018-14.238c0.119-0.08 0.309-0.181 0.569-0.304 0.26-0.123 0.547-0.218 0.86-0.285v0c0.554-0.118 0.992-0.094 1.314 0.069 0.321 0.164 0.535 0.497 0.641 0.999z" fill="#ff851b" data-fill-palette-color="secondary"></path><path d="M184.751 251.071v0c1.546-0.605 3.067-0.817 4.563-0.635 1.493 0.175 2.862 0.8 4.105 1.874 1.235 1.071 2.257 2.64 3.066 4.708v0c0.821 2.099 1.128 3.966 0.923 5.6-0.212 1.637-0.839 3.035-1.883 4.194-1.045 1.153-2.431 2.068-4.157 2.743v0c-1.223 0.478-2.384 0.76-3.482 0.846-1.104 0.088-2.039 0.078-2.805-0.03v0c-0.658-0.144-1.144-0.326-1.459-0.547-0.315-0.22-0.576-0.595-0.783-1.122v0l-4.874-12.464 2.99-1.169 4.874 12.464c0.482 0.134 1.135 0.183 1.959 0.147 0.824-0.036 1.695-0.233 2.614-0.593v0c1.702-0.665 2.861-1.738 3.478-3.218 0.611-1.478 0.467-3.365-0.432-5.663v0c-0.908-2.323-2.091-3.808-3.547-4.456-1.465-0.652-3.011-0.659-4.637-0.023v0c-0.994 0.389-1.803 0.927-2.429 1.616-0.626 0.689-1.089 1.382-1.389 2.079v0l-1.514-2.222c0.381-0.636 0.95-1.352 1.705-2.149 0.753-0.803 1.791-1.463 3.114-1.98zM177.993 247.495l3.195 8.17-2.99 1.169-3.618-9.25c0.105-0.098 0.275-0.229 0.512-0.394 0.237-0.164 0.504-0.304 0.802-0.421v0c0.528-0.206 0.964-0.255 1.307-0.146 0.343 0.109 0.607 0.4 0.792 0.872z" fill="#ff851b" data-fill-palette-color="secondary"></path><path d="M213.648 257.994v0c-2.135 1.339-4.05 1.958-5.743 1.855-1.697-0.108-3.046-0.959-4.045-2.551v0c-0.925-1.474-1.139-2.914-0.644-4.32 0.5-1.4 1.572-2.726 3.219-3.979v0l4.535-3.518-0.595-0.949c-0.712-1.135-1.575-1.751-2.588-1.848-1.004-0.094-2.085 0.222-3.243 0.948v0c-0.932 0.585-1.74 1.28-2.422 2.087-0.683 0.806-1.244 1.587-1.683 2.342v0c-0.284-0.05-0.566-0.137-0.848-0.259-0.287-0.119-0.502-0.291-0.643-0.517v0c-0.372-0.593-0.327-1.255 0.135-1.987v0c0.417-0.703 0.974-1.39 1.67-2.062 0.698-0.682 1.502-1.308 2.411-1.879v0c1.977-1.24 3.823-1.78 5.537-1.62 1.714 0.16 3.17 1.195 4.368 3.105v0l5.061 8.066c0.315 0.503 0.459 0.944 0.429 1.325-0.035 0.384-0.171 0.812-0.41 1.284v0c-0.364 0.637-0.919 1.364-1.667 2.18-0.754 0.819-1.698 1.585-2.834 2.297zM212.24 255.749v0c0.955-0.599 1.682-1.189 2.183-1.772 0.507-0.585 0.837-1.056 0.991-1.412v0l-3.094-4.932-3.943 3.088c-1.124 0.831-1.836 1.64-2.138 2.427-0.298 0.793-0.191 1.596 0.319 2.41v0c0.528 0.842 1.279 1.292 2.253 1.35 0.97 0.053 2.113-0.334 3.429-1.159z" fill="#ff851b" data-fill-palette-color="secondary"></path><path d="M233.753 234.811v0c1.147 1.273 1.576 2.691 1.286 4.253-0.294 1.557-1.328 3.134-3.102 4.732v0c-1.511 1.361-2.955 2.239-4.33 2.635-1.38 0.391-2.32 0.308-2.82-0.247v0c-0.214-0.238-0.362-0.531-0.443-0.88-0.076-0.344-0.048-0.701 0.084-1.072v0c0.879-0.11 1.823-0.327 2.832-0.652 0.999-0.326 1.957-0.901 2.874-1.727v0c2.076-1.87 2.487-3.501 1.233-4.893v0c-0.522-0.58-1.124-0.894-1.806-0.944-0.682-0.059-1.433 0.138-2.255 0.59v0l-3.072 1.582c-1.486 0.791-2.788 1.124-3.905 1-1.127-0.125-2.112-0.656-2.955-1.593v0c-0.951-1.055-1.348-2.358-1.191-3.908 0.157-1.55 1.112-3.115 2.866-4.694v0c0.936-0.843 1.839-1.481 2.706-1.913 0.868-0.441 1.634-0.682 2.298-0.722 0.668-0.045 1.165 0.113 1.49 0.474v0c0.232 0.258 0.373 0.544 0.423 0.858 0.045 0.319 0.005 0.628-0.119 0.929v0c-0.385 0.051-0.846 0.147-1.382 0.289-0.541 0.146-1.118 0.378-1.729 0.695-0.616 0.322-1.222 0.751-1.817 1.287v0c-0.877 0.79-1.434 1.597-1.67 2.419-0.232 0.819-0.069 1.538 0.489 2.158v0c0.393 0.436 0.892 0.682 1.498 0.737 0.602 0.05 1.313-0.151 2.135-0.604v0l2.521-1.341c1.643-0.906 3.112-1.318 4.406-1.236 1.295 0.072 2.446 0.668 3.455 1.788z" fill="#ff851b" data-fill-palette-color="secondary"></path><path d="M238.7 212.23l0.504 10.477-2.481 0.594-1.241-12.714c0.42-0.484 0.854-0.778 1.303-0.881 0.448-0.112 0.849-0.027 1.203 0.255v0c0.297 0.237 0.488 0.538 0.572 0.904 0.088 0.36 0.135 0.815 0.14 1.365zM249.15 222.357l-12.07 1.331 0.369-2.583 13.529-2.279c0.431 0.411 0.686 0.845 0.767 1.301 0.08 0.456-0.04 0.885-0.36 1.286v0c-0.249 0.313-0.561 0.533-0.936 0.661-0.375 0.128-0.808 0.222-1.299 0.283zM241.831 231.015l-7.448-5.933 2.376-2.212 7.988 6.363c-0.041 0.138-0.119 0.331-0.233 0.582-0.114 0.25-0.273 0.503-0.476 0.758v0c-0.349 0.438-0.704 0.701-1.064 0.79-0.36 0.088-0.741-0.028-1.143-0.348zM225.337 213.771l12.65 10.078-2.383 2.206-13.175-10.495c0.041-0.138 0.123-0.337 0.245-0.597 0.122-0.261 0.283-0.516 0.483-0.767v0c0.353-0.443 0.706-0.704 1.057-0.782 0.352-0.078 0.726 0.041 1.123 0.357z" fill="#ff851b" data-fill-palette-color="secondary"></path><path d="M255.279 195.416l-4.704 12.808-2.307-1.052 4.27-11.487c-1.35-0.601-2.661-0.723-3.932-0.367-1.263 0.353-2.274 1.241-3.036 2.665v0c-0.783 1.464-0.904 2.957-0.364 4.478 0.537 1.512 1.788 2.793 3.752 3.844v0l0.785 0.419c1.976 0.845 3.742 0.991 5.3 0.441 1.557-0.551 2.834-1.759 3.831-3.623v0c0.531-0.994 0.848-1.982 0.949-2.963 0.092-0.979 0.078-1.807-0.044-2.485v0c0.303-0.171 0.607-0.273 0.913-0.306 0.311-0.03 0.608 0.03 0.89 0.181v0c0.447 0.239 0.732 0.717 0.856 1.433 0.115 0.719 0.066 1.559-0.145 2.519-0.214 0.967-0.6 1.97-1.157 3.012v0c-0.972 1.817-2.145 3.22-3.52 4.208-1.378 0.98-2.915 1.478-4.61 1.494-1.698 0.022-3.494-0.473-5.387-1.485v0c-1.347-0.72-2.443-1.555-3.288-2.507-0.842-0.957-1.442-1.977-1.8-3.06-0.361-1.093-0.476-2.228-0.346-3.406 0.125-1.181 0.489-2.336 1.093-3.465v0c0.773-1.447 1.763-2.555 2.968-3.324 1.2-0.773 2.516-1.177 3.949-1.213 1.436-0.041 2.866 0.319 4.289 1.08v0c0.517 0.277 0.824 0.595 0.918 0.956 0.098 0.355 0.057 0.756-0.123 1.205z" fill="#ff851b" data-fill-palette-color="secondary"></path><path d="M262.429 188.82l-5.432-1.89 1.055-3.033 5.234 1.821c1.014 0.353 1.834 0.31 2.46-0.129 0.617-0.435 1.102-1.159 1.455-2.173v0c0.149-0.428 0.241-0.936 0.276-1.524 0.033-0.582 0.01-1.084-0.069-1.507v0c0.206-0.105 0.444-0.181 0.715-0.228 0.271-0.047 0.557-0.018 0.859 0.088v0c0.561 0.195 0.902 0.685 1.025 1.468 0.125 0.778-0.016 1.749-0.421 2.914v0c-0.618 1.776-1.509 3.079-2.674 3.91-1.169 0.822-2.663 0.916-4.483 0.283zM255.304 176.851l-2.406 6.915-2.503-0.871 2.682-7.708c0.129-0.047 0.32-0.069 0.573-0.066 0.253 0.003 0.505 0.049 0.758 0.137v0c0.409 0.142 0.692 0.354 0.849 0.634 0.154 0.287 0.17 0.606 0.047 0.959zM246.546 179.893l12.64 4.399-1.055 3.032-13.745-4.783c-0.007-0.143 0.005-0.358 0.034-0.645 0.029-0.286 0.096-0.581 0.201-0.883v0c0.186-0.535 0.432-0.898 0.739-1.088 0.306-0.19 0.702-0.201 1.186-0.032z" fill="#ff851b" data-fill-palette-color="secondary"></path></g></svg></g></svg></g></svg></g><g></g></svg></g><defs></defs></svg><rect width="279.72" height="279.72" fill="none" stroke="none" visibility="hidden"></rect></g></svg></g></svg>